<?xml version="1.0" standalone="no"?>
<!DOCTYPE svg PUBLIC "-//W3C//DTD SVG 20010904//EN"
 "http://www.w3.org/TR/2001/REC-SVG-20010904/DTD/svg10.dtd">
<svg version="1.0" xmlns="http://www.w3.org/2000/svg"
 width="476.000000pt" height="476.000000pt" viewBox="0 0 476.000000 476.000000"
 preserveAspectRatio="xMidYMid meet">
<metadata>
Created by potrace 1.11, written by Peter Selinger 2001-2013
</metadata>
<g transform="translate(0.000000,476.000000) scale(0.100000,-0.100000)"
fill="#000000" stroke="none">
<path d="M1187 4513 c656 -2 1730 -2 2385 0 656 1 120 2 -1192 2 -1312 0
-1848 -1 -1193 -2z"/>
<path d="M123 4370 c0 -25 2 -35 4 -22 2 12 2 32 0 45 -2 12 -4 2 -4 -23z"/>
<path d="M840 4395 c0 -8 -9 -15 -20 -15 -11 0 -20 -4 -20 -9 0 -5 9 -7 19 -4
14 4 21 -1 24 -19 2 -13 5 -5 6 20 0 23 -1 42 -4 42 -3 0 -5 -7 -5 -15z"/>
<path d="M970 4401 c0 -5 -9 -11 -20 -14 -20 -5 -28 -41 -12 -51 5 -3 8 4 8
16 -1 12 5 23 13 26 10 3 13 -2 9 -22 -3 -14 -1 -26 3 -26 5 0 9 18 9 40 0 22
-2 40 -5 40 -3 0 -5 -4 -5 -9z"/>
<path d="M1113 4370 c0 -25 2 -35 4 -22 2 12 2 32 0 45 -2 12 -4 2 -4 -23z"/>
<path d="M1381 4368 c1 -24 3 -35 6 -25 5 21 22 22 29 2 4 -8 11 -15 16 -15 6
0 5 6 -2 15 -9 11 -10 19 -1 28 13 16 -4 37 -31 37 -15 0 -18 -8 -17 -42z m42
17 c1 -5 -6 -11 -15 -13 -11 -2 -18 3 -18 13 0 17 30 18 33 0z"/>
<path d="M2054 4398 c-4 -6 3 -19 15 -29 12 -10 20 -23 16 -29 -3 -5 -1 -10 4
-10 21 0 11 39 -11 46 -21 6 -21 7 -3 20 16 12 16 14 3 14 -9 0 -20 -5 -24
-12z"/>
<path d="M2183 4370 c0 -25 2 -35 4 -22 2 12 2 32 0 45 -2 12 -4 2 -4 -23z"/>
<path d="M2401 4379 c-13 -39 -14 -59 -1 -39 8 12 13 13 30 2 20 -12 20 -12 5
25 -21 49 -21 49 -34 12z m16 -11 c-3 -8 -6 -5 -6 6 -1 11 2 17 5 13 3 -3 4
-12 1 -19z"/>
<path d="M2463 4370 c0 -25 2 -35 4 -22 2 12 2 32 0 45 -2 12 -4 2 -4 -23z"/>
<path d="M2490 4370 c0 -22 3 -40 8 -40 4 0 6 18 4 40 -2 22 -6 40 -8 40 -2 0
-4 -18 -4 -40z"/>
<path d="M290 4367 c0 -20 3 -37 8 -37 9 0 8 57 -1 67 -4 3 -7 -10 -7 -30z"/>
<path d="M397 4393 c-7 -10 3 -63 12 -63 7 0 6 58 -1 66 -3 3 -8 2 -11 -3z"/>
<path d="M2328 4395 c-6 -7 3 -65 11 -65 7 0 7 58 -1 65 -2 3 -7 3 -10 0z"/>
<path d="M0 4381 c0 -6 5 -10 12 -8 6 1 15 -9 19 -23 7 -24 8 -23 6 5 -1 19
-8 31 -19 33 -10 2 -18 -1 -18 -7z"/>
<path d="M67 4383 c-4 -3 -7 -24 -7 -45 0 -35 3 -39 22 -36 22 3 39 28 18 28
-6 0 -8 -4 -5 -10 3 -5 -1 -10 -9 -10 -12 0 -16 10 -16 35 0 36 15 48 23 18 4
-14 5 -12 6 5 1 21 -18 30 -32 15z"/>
<path d="M157 4383 c-10 -9 -9 -41 2 -47 4 -3 6 6 3 19 -5 27 7 32 27 13 10
-11 11 -10 6 5 -7 17 -26 23 -38 10z"/>
<path d="M237 4382 c-3 -4 3 -18 14 -31 13 -16 19 -19 19 -8 0 8 -8 18 -17 22
-17 7 -16 8 2 15 16 7 17 9 3 9 -9 1 -19 -2 -21 -7z"/>
<path d="M350 4383 c13 -6 13 -43 -1 -43 -5 0 -7 5 -4 10 3 6 1 10 -4 10 -6 0
-11 -7 -11 -15 0 -8 9 -15 21 -15 16 0 20 5 17 27 -2 14 -9 28 -16 29 -7 1 -8
0 -2 -3z"/>
<path d="M467 4384 c-10 -10 -9 -42 2 -48 5 -4 7 2 4 13 -6 23 16 38 29 20 8
-12 9 -11 5 1 -4 16 -29 25 -40 14z"/>
<path d="M543 4383 c-7 -2 -13 -17 -12 -31 l1 -27 7 24 c9 35 29 37 34 4 l5
-28 -2 29 c-1 30 -11 38 -33 29z"/>
<path d="M1007 4383 c-4 -3 -6 -18 -6 -32 1 -21 2 -22 6 -6 3 11 10 26 15 33
11 12 -3 18 -15 5z"/>
<path d="M1053 4383 c-15 -5 -17 -39 -4 -47 5 -4 7 2 4 13 -3 10 1 22 7 26 17
10 31 -16 18 -32 -7 -9 -7 -13 0 -13 15 0 21 22 10 43 -9 18 -14 19 -35 10z"/>
<path d="M1144 4376 c-9 -24 4 -48 23 -44 12 2 18 12 18 28 0 29 -32 41 -41
16z m34 -19 c2 -10 -3 -17 -12 -17 -10 0 -16 9 -16 21 0 24 23 21 28 -4z"/>
<path d="M1217 4383 c-3 -5 -7 -24 -9 -43 -3 -31 0 -35 21 -35 13 0 26 6 29
13 2 6 -1 12 -8 12 -6 0 -8 -4 -5 -10 3 -5 -2 -10 -12 -10 -16 0 -18 6 -15 35
2 19 9 35 14 35 6 0 8 -7 4 -15 -3 -8 -1 -15 4 -15 6 0 10 9 10 20 0 19 -24
28 -33 13z"/>
<path d="M1304 4375 c-9 -23 3 -45 23 -44 17 1 17 2 1 6 -10 2 -18 11 -18 18
0 8 8 19 18 24 16 10 16 10 -1 11 -10 0 -20 -7 -23 -15z"/>
<path d="M1457 4383 c-10 -9 -9 -41 2 -47 4 -3 6 6 3 19 -5 27 7 32 27 13 10
-11 11 -10 6 5 -7 17 -26 23 -38 10z"/>
<path d="M1517 4383 c-2 -5 -3 -24 -3 -43 1 -28 5 -35 20 -35 11 0 20 6 22 13
1 7 0 8 -3 2 -12 -24 -31 -9 -28 23 2 23 7 31 19 29 9 -2 16 2 16 8 0 11 -37
14 -43 3z"/>
<path d="M1610 4375 c-16 -19 -6 -45 19 -45 23 0 35 28 20 46 -15 18 -24 18
-39 -1z m36 -6 c10 -17 -13 -36 -27 -22 -12 12 -4 33 11 33 5 0 12 -5 16 -11z"/>
<path d="M1677 4384 c-4 -4 -7 -19 -6 -33 l1 -26 7 24 c9 34 29 37 34 6 4 -24
4 -24 3 2 -1 27 -24 42 -39 27z"/>
<path d="M2127 4384 c-10 -10 -9 -54 2 -54 4 0 6 11 3 25 -4 24 11 35 21 15 3
-6 4 -5 3 2 -3 14 -20 21 -29 12z"/>
<path d="M2217 4383 c-10 -9 -8 -53 2 -53 4 0 6 11 3 25 -4 25 12 35 21 13 3
-8 6 -6 6 5 1 17 -19 23 -32 10z"/>
<path d="M2277 4383 c-11 -10 -8 -53 3 -53 5 0 7 7 3 16 -4 11 1 22 12 30 15
11 16 14 4 14 -9 0 -19 -3 -22 -7z"/>
<path d="M882 4358 c9 -22 8 -31 -3 -44 -11 -14 -12 -16 0 -13 7 3 19 23 27
44 10 30 10 36 0 23 -11 -15 -13 -15 -24 0 -9 13 -9 11 0 -10z"/>
<path d="M1272 4355 c0 -16 2 -22 5 -12 2 9 2 23 0 30 -3 6 -5 -1 -5 -18z"/>
<path d="M1582 4355 c0 -16 2 -22 5 -12 2 9 2 23 0 30 -3 6 -5 -1 -5 -18z"/>
<path d="M495 4340 c-3 -5 -1 -10 4 -10 6 0 11 5 11 10 0 6 -2 10 -4 10 -3 0
-8 -4 -11 -10z"/>
<path d="M0 4220 c0 -6 132 -10 375 -10 243 0 375 4 375 10 0 6 -132 10 -375
10 -243 0 -375 -4 -375 -10z"/>
<path d="M787 4104 c-4 -26 -2 -43 7 -54 28 -31 36 -111 20 -181 -9 -35 -17
-86 -18 -114 -1 -28 -12 -67 -24 -90 -63 -118 -71 -138 -61 -158 6 -10 8 -25
5 -32 -3 -8 12 -29 34 -49 21 -19 44 -44 50 -55 9 -18 20 -21 79 -21 l69 0 7
123 c4 68 6 152 4 188 -4 60 -3 64 17 61 22 -3 41 33 23 44 -5 3 -6 10 -3 16
5 7 11 2 16 -12 11 -29 -17 -77 -35 -62 -9 8 -12 -34 -12 -179 l0 -189 38 0
c20 0 37 -5 37 -11 0 -6 -7 -8 -17 -5 -9 4 -59 10 -112 13 l-95 6 24 -34 c32
-44 49 -131 36 -180 -7 -27 -6 -51 4 -86 7 -26 13 -69 14 -95 1 -39 7 -53 31
-78 28 -28 32 -29 57 -16 14 8 37 14 50 14 13 1 39 3 58 7 29 4 28 3 -10 -9
-25 -8 -62 -18 -83 -21 l-38 -6 18 -31 c10 -16 34 -44 54 -62 20 -17 42 -42
49 -56 12 -22 35 -44 42 -39 2 1 13 -3 25 -9 19 -11 24 -9 33 8 6 11 18 20 26
20 10 0 14 6 11 14 -3 8 1 20 9 27 13 10 13 14 -1 29 -8 9 -15 24 -15 33 0 26
-37 81 -70 102 -16 11 -30 24 -30 28 0 4 -10 21 -22 38 -21 28 -22 31 -6 62
10 18 18 42 20 54 3 22 4 22 32 8 15 -8 32 -15 36 -15 9 0 8 20 -3 36 -3 6 2
22 13 34 24 28 25 34 5 54 -8 8 -15 20 -15 26 0 7 -10 20 -21 29 -13 11 -21
27 -20 44 1 15 2 33 2 40 1 30 -15 118 -22 123 -5 3 -9 16 -9 29 0 18 15 36
55 66 30 23 55 43 55 45 0 2 -9 12 -20 22 -15 14 -19 26 -14 50 6 27 11 32 35
32 22 0 29 5 29 19 0 11 7 26 15 35 8 8 15 21 15 29 0 9 6 17 13 20 9 3 9 7
-2 20 -8 10 -11 27 -7 43 7 28 4 28 -49 -11 -32 -23 -79 -40 -69 -24 3 5 13 9
22 9 9 0 32 14 51 30 21 19 41 28 51 25 10 -3 23 1 30 10 7 8 23 15 36 15 14
0 30 10 39 24 14 21 19 23 45 13 23 -9 32 -8 47 5 10 9 29 19 43 23 14 4 30
12 37 17 8 6 18 6 29 0 10 -6 29 -6 47 -1 25 7 33 5 44 -11 17 -24 39 -26 60
-4 9 8 24 13 34 11 13 -4 19 0 19 11 0 10 16 28 35 41 35 23 47 62 25 76 -16
10 -91 13 -425 19 -170 4 -382 9 -471 12 l-161 6 -6 -38z m186 -2 c-18 -14
-23 -29 -25 -79 -2 -35 -6 -63 -11 -63 -4 0 -5 28 -3 62 3 49 9 66 26 80 12
10 25 18 29 18 3 0 -4 -8 -16 -18z m647 -79 c0 -45 -10 -37 -17 13 -3 25 -1
34 6 30 6 -4 11 -23 11 -43z m-639 -123 c10 0 19 -3 19 -8 0 -4 -21 -5 -46 -3
-35 2 -48 8 -51 22 -3 11 -17 19 -37 22 -29 3 -28 4 7 5 31 2 40 -2 44 -18 4
-16 8 -18 19 -9 8 6 15 19 15 28 1 9 4 4 6 -11 3 -20 10 -28 24 -28z m26 -62
c-3 -7 -5 -2 -5 12 0 14 2 19 5 13 2 -7 2 -19 0 -25z m56 -54 c4 -7 14 -11 21
-8 7 3 20 -1 27 -8 19 -19 49 -30 49 -18 0 5 -4 12 -10 15 -5 3 -10 11 -10 16
0 6 7 4 15 -5 24 -24 19 -49 -7 -41 -13 4 -27 11 -32 16 -6 5 -17 9 -26 9 -9
0 -25 9 -35 20 -10 11 -24 20 -32 20 -7 0 -13 5 -13 10 0 13 42 -7 53 -26z
m56 -460 c2 -2 -12 -4 -32 -4 -20 0 -37 4 -37 10 0 8 58 3 69 -6z m42 -170
c-9 -6 -25 -13 -36 -15 -10 -2 -22 -15 -26 -29 l-7 -25 -1 28 c-1 23 4 28 29
34 21 4 30 11 30 25 0 15 2 17 14 6 11 -11 11 -15 -3 -24z m-78 -86 c7 -21 -4
-38 -23 -38 -23 0 -34 16 -26 35 7 18 43 20 49 3z m42 -248 c0 -29 -32 -41
-41 -16 -9 24 4 48 23 44 12 -2 18 -12 18 -28z"/>
<path d="M1888 4087 c3 -22 -4 -35 -34 -64 -22 -20 -39 -41 -40 -47 -2 -26
-18 -46 -35 -46 -10 0 -19 6 -19 13 0 9 -2 9 -8 0 -4 -7 -22 -16 -39 -19 -25
-5 -34 -2 -44 14 -10 15 -18 18 -39 12 -15 -4 -35 -3 -44 2 -14 8 -33 3 -78
-21 -63 -32 -88 -38 -88 -21 0 18 -17 11 -23 -9 -3 -12 -18 -22 -38 -26 -19
-4 -40 -12 -46 -17 -15 -12 -17 -48 -3 -48 14 0 12 -38 -3 -47 -6 -4 -17 -19
-23 -33 -6 -14 -22 -46 -34 -72 -13 -27 -21 -57 -18 -72 4 -18 -1 -29 -16 -39
-12 -8 -39 -30 -61 -50 -36 -33 -38 -37 -23 -49 14 -10 18 -34 22 -108 5 -112
3 -100 19 -100 19 0 64 -100 49 -109 -17 -10 -22 -71 -9 -93 7 -10 21 -18 33
-18 15 0 26 -10 34 -31 11 -26 11 -33 -3 -46 -13 -13 -19 -14 -31 -3 -22 18
-20 39 6 49 28 10 12 20 -49 27 -26 4 -57 14 -67 23 -11 9 -16 10 -12 4 4 -7
0 -23 -8 -35 -20 -28 -20 -57 -1 -64 8 -4 15 -11 15 -17 0 -5 17 -27 38 -47
20 -21 48 -49 60 -63 13 -13 44 -34 68 -46 27 -14 46 -31 50 -46 4 -15 11 -21
23 -18 11 3 21 -4 29 -21 6 -15 15 -25 19 -24 17 5 53 -24 53 -42 0 -10 5 -22
10 -25 6 -4 8 -16 4 -28 -5 -17 0 -14 21 11 15 18 30 31 33 28 3 -3 -1 -13 -9
-22 -12 -15 -12 -17 1 -12 8 2 20 13 25 24 12 24 72 102 97 127 15 14 16 22 8
32 -17 20 -8 59 14 63 10 2 22 -2 27 -9 6 -10 11 -10 22 0 10 8 17 8 22 2 7
-12 95 -3 109 10 6 5 21 9 35 9 23 1 24 2 8 11 -12 7 -16 17 -12 30 5 13 2 17
-7 14 -7 -3 -29 6 -48 20 -19 14 -30 25 -25 25 5 0 17 -7 26 -16 10 -9 33 -18
51 -20 18 -2 43 -9 56 -16 25 -13 29 -46 6 -55 -12 -5 -10 -9 10 -23 15 -9 36
-16 49 -15 17 1 21 7 19 26 -2 13 -11 31 -19 41 -12 14 -17 25 -22 57 -1 3 -7
-4 -15 -15 -14 -18 -16 -18 -32 -2 -21 21 -11 52 15 45 16 -4 17 0 11 30 -13
55 -32 97 -51 113 -26 21 -15 64 15 56 11 -3 32 0 46 6 21 9 25 17 26 59 0 38
-3 49 -18 52 -22 6 -24 35 -3 43 13 5 13 9 -1 35 -8 16 -22 29 -31 29 -10 0
-28 12 -41 28 -13 15 -20 21 -17 14 11 -21 -14 -43 -36 -31 -24 12 -24 35 -1
48 14 9 13 10 -10 11 -16 0 -37 -9 -48 -20 -19 -19 -22 -19 -45 -4 -19 12 -25
24 -24 48 2 30 2 30 6 3 4 -25 38 -55 50 -43 3 3 3 16 -1 30 -7 29 -53 57 -94
57 -105 2 -195 -3 -252 -12 -36 -6 -88 -11 -117 -10 -29 0 -55 -4 -58 -9 -4
-6 -24 -7 -46 -4 -24 4 -44 2 -53 -5 -11 -9 -16 -9 -22 0 -4 7 -3 9 4 5 6 -3
14 -2 17 4 4 6 25 11 48 10 54 0 124 6 223 19 43 6 114 11 156 12 72 2 77 3
67 21 -6 10 -8 38 -6 61 l4 42 1 -47 2 -47 30 17 c31 18 36 27 21 36 -5 3 -7
15 -4 26 4 15 11 19 25 14 23 -7 58 21 58 47 0 21 44 54 60 44 5 -3 14 5 19
18 11 29 50 42 65 22 14 -19 50 -13 54 8 3 15 -13 17 -162 17 l-165 0 -4 -77
-3 -78 -2 76 c-2 91 11 85 -178 88 -71 1 -131 5 -134 8 -4 5 620 -3 646 -8 22
-4 26 2 12 19 -22 24 -45 173 -31 201 4 9 7 34 8 56 l0 40 -40 0 c-39 0 -41
-1 -37 -28z m-269 -194 c-1 -16 -4 -39 -8 -53 -6 -19 -8 -12 -9 28 0 28 3 52
9 52 5 0 9 -12 8 -27z m-291 -256 c14 -17 4 -84 -13 -91 -7 -2 -21 -3 -31 -1
-11 2 -22 4 -26 4 -14 2 -8 42 7 47 8 4 15 12 15 18 0 13 20 36 31 36 4 0 11
-6 17 -13z m312 -198 c0 -10 -4 -20 -8 -23 -5 -3 -9 -36 -9 -73 -1 -68 -1 -68
47 -123 l49 -54 22 19 22 20 -14 -22 c-8 -13 -17 -23 -22 -23 -4 0 -5 -6 -1
-12 4 -7 3 -10 -1 -5 -5 4 -17 -1 -28 -10 -10 -10 -21 -17 -23 -15 -12 7 -24
-2 -42 -31 -14 -25 -30 -36 -58 -43 -42 -10 -124 -7 -124 4 0 4 20 6 45 4 81
-7 113 4 133 46 11 23 26 38 42 42 14 3 25 11 25 18 0 7 -22 39 -48 71 -48 59
-51 74 -32 124 8 18 2 20 -32 11 -12 -3 -25 -15 -28 -25 -4 -11 -15 -24 -25
-29 -18 -9 -17 -7 3 24 12 20 29 35 38 36 13 0 59 50 59 64 0 3 -10 15 -22 26
l-23 22 28 -13 c15 -7 27 -20 27 -30z m288 -166 c3 -19 -1 -23 -21 -23 -26 0
-38 15 -29 38 8 22 47 10 50 -15z m-423 7 c-3 -5 -26 -10 -51 -10 -28 0 -43 4
-39 10 3 6 26 10 51 10 28 0 43 -4 39 -10z m-148 -16 c3 -8 -2 -23 -11 -32
-15 -15 -17 -15 -32 0 -21 21 -11 48 16 48 11 0 23 -7 27 -16z m-67 -13 c0 -4
-24 -6 -52 -4 -78 7 -82 11 -10 12 34 1 62 -3 62 -8z m142 -16 c14 -19 16 -29
8 -50 -13 -35 -13 -35 10 -35 11 0 20 -4 20 -10 0 -10 -35 -8 -46 3 -3 3 -1
20 5 38 13 39 1 59 -38 60 -23 0 -24 1 -6 9 28 12 28 12 47 -15z m465 -26 c48
1 85 0 82 -3 -11 -11 -169 -8 -183 3 -7 6 -22 8 -32 4 -17 -6 -17 -5 -5 10 13
16 15 16 32 1 15 -13 37 -16 106 -15z m-289 -66 c5 -17 -26 -29 -40 -15 -6 6
-7 15 -3 22 9 14 37 9 43 -7z m252 -21 c-14 -2 -32 -10 -40 -17 -8 -7 -33 -15
-55 -18 l-40 -6 45 15 c24 7 50 20 58 28 8 8 23 11 35 8 21 -6 21 -7 -3 -10z
m-138 -33 c-10 -42 -47 -49 -47 -9 0 19 5 25 23 24 13 0 22 5 22 14 0 9 3 13
6 10 3 -3 1 -21 -4 -39z m-252 1 c0 -11 -4 -20 -9 -20 -5 0 -7 9 -4 20 3 11 7
20 9 20 2 0 4 -9 4 -20z m-46 4 c9 -3 16 -10 16 -16 0 -5 -6 -6 -12 -1 -7 4
-56 7 -108 7 l-95 -1 80 7 c44 3 85 7 92 8 6 1 18 -1 27 -4z m256 -75 c0 -26
-28 -36 -46 -17 -14 13 -14 17 1 31 19 20 45 12 45 -14z m197 24 c-43 -4 -54
-10 -106 -62 -46 -46 -63 -57 -86 -55 -43 2 -45 3 -45 15 0 8 4 8 13 2 27 -21
62 -7 119 50 55 55 59 57 105 55 l48 -2 -48 -3z m-406 -89 c8 -9 8 -14 1 -14
-15 0 -32 34 -31 62 1 21 2 20 9 -5 5 -16 14 -35 21 -43z m76 44 c-3 -8 -6 -5
-6 6 -1 11 2 17 5 13 3 -3 4 -12 1 -19z m-244 -78 c5 -18 14 -20 90 -20 71 0
87 -3 102 -20 10 -11 13 -20 8 -20 -6 0 -16 7 -23 15 -15 18 -180 22 -180 5 0
-5 6 -10 14 -10 8 0 18 -4 21 -10 3 -5 0 -7 -7 -5 -8 3 -24 -8 -36 -25 -13
-16 -27 -30 -32 -30 -5 0 2 11 15 24 18 18 22 32 20 59 -2 20 -6 41 -10 47 -3
5 -2 10 3 10 5 0 12 -9 15 -20z m317 5 c-7 -9 -15 -13 -18 -10 -3 3 -16 -2
-29 -10 -13 -9 -23 -12 -23 -7 0 10 47 34 79 41 2 1 -2 -6 -9 -14z m135 -25
c-3 -5 -16 -15 -28 -21 -19 -9 -19 -8 3 10 28 23 34 26 25 11z m-145 -4 c0 -3
-4 -8 -10 -11 -5 -3 -10 -1 -10 4 0 6 5 11 10 11 6 0 10 -2 10 -4z m103 -51
c-3 -9 -8 -14 -10 -11 -3 3 -2 9 2 15 9 16 15 13 8 -4z m-159 -13 c3 -5 22 -9
42 -10 57 -2 54 -12 -4 -12 -30 0 -52 5 -52 11 0 5 -5 7 -12 3 -7 -4 -8 -3 -4
4 8 14 23 16 30 4z m-189 -32 c9 -16 13 -30 11 -30 -3 0 -12 14 -21 30 -9 17
-13 30 -11 30 3 0 12 -13 21 -30z m214 -53 c-2 -3 -15 10 -28 27 l-24 31 28
-27 c16 -15 27 -29 24 -31z m-179 -17 c0 -5 -5 -10 -11 -10 -5 0 -7 5 -4 10 3
6 8 10 11 10 2 0 4 -4 4 -10z m109 6 c-2 -2 -26 -6 -53 -9 -30 -3 -43 -1 -35
4 13 8 97 13 88 5z m64 -21 c4 -8 2 -17 -2 -20 -5 -2 -11 4 -14 15 -6 23 8 27
16 5z m-56 -32 c-3 -10 -5 -4 -5 12 0 17 2 24 5 18 2 -7 2 -21 0 -30z m43 -28
c-14 -17 -36 -20 -44 -6 -4 5 2 7 13 4 10 -3 22 0 25 6 4 6 10 11 13 11 3 0 0
-7 -7 -15z"/>
<path d="M1993 4100 c-7 -10 -6 -21 1 -32 7 -13 6 -26 -5 -50 -14 -29 -14 -42
-3 -103 8 -38 19 -80 25 -92 10 -18 9 -29 -1 -50 -7 -16 -13 -33 -11 -40 3
-17 -76 -14 -83 3 -7 19 -25 17 -33 -3 -10 -26 -35 -43 -55 -37 -11 3 -18 0
-18 -7 0 -27 -45 -79 -68 -79 -20 0 -21 -3 -12 -21 13 -24 15 -21 -25 -42
l-30 -16 26 -1 c15 0 42 -15 67 -37 27 -26 51 -39 73 -40 21 -1 44 -13 68 -36
20 -19 44 -37 53 -40 9 -3 28 -23 41 -44 20 -32 23 -49 22 -116 -1 -43 2 -80
6 -83 5 -3 9 217 9 488 0 479 0 494 -19 494 -10 0 -23 -7 -28 -16z"/>
<path d="M1945 3110 c-16 -4 -22 -8 -12 -9 9 0 17 -9 17 -18 0 -10 7 -31 15
-47 8 -15 15 -34 15 -41 0 -7 8 -30 17 -51 9 -22 15 -47 14 -57 -2 -12 5 -21
19 -24 15 -4 20 -11 17 -24 -4 -13 12 -37 50 -76 54 -58 87 -106 77 -115 -9
-10 16 -58 31 -58 8 0 15 -4 15 -9 0 -5 11 -12 25 -15 14 -4 25 -12 25 -18 0
-6 14 1 30 17 17 16 30 35 30 43 0 9 7 11 20 7 11 -3 20 -3 20 2 0 7 -152 143
-302 273 -16 13 -28 29 -28 36 0 7 -8 15 -17 17 -17 4 -17 5 0 6 15 1 18 8 15
44 -3 39 -5 42 -38 48 l-35 6 38 2 c29 1 37 5 37 20 0 14 -5 18 -21 14 -15 -4
-22 0 -26 16 -3 11 -8 20 -12 20 -3 -1 -19 -5 -36 -9z"/>
<path d="M1865 2801 c-3 -5 -20 -13 -38 -16 -17 -4 -35 -13 -39 -19 -5 -7 -11
-8 -15 -1 -14 18 -42 16 -63 -5 -11 -11 -20 -24 -20 -29 0 -6 -8 -16 -18 -23
-10 -7 -27 -26 -38 -43 -10 -16 -33 -49 -50 -72 -23 -31 -31 -49 -28 -73 2
-19 0 -29 -6 -25 -6 3 -10 17 -10 29 0 23 0 23 -34 7 -40 -19 -51 -53 -25 -77
23 -21 74 -11 65 12 -3 9 -1 12 4 9 15 -10 12 -35 -5 -35 -19 0 -19 -5 1 -57
23 -59 39 -61 95 -8 35 32 56 45 78 45 16 0 32 6 34 13 3 7 6 5 6 -5 1 -13 -7
-18 -24 -18 -35 0 -73 -21 -115 -64 -30 -32 -33 -39 -22 -56 15 -25 16 -60 1
-60 -20 0 11 -29 34 -32 12 -2 26 -12 32 -23 5 -11 17 -20 25 -20 24 0 25 -45
1 -52 -19 -5 -19 -6 -4 -39 9 -19 19 -32 21 -29 3 2 13 0 24 -6 16 -9 27 -3
68 35 51 48 60 53 60 36 0 -5 -6 -10 -13 -10 -7 0 -32 -20 -56 -44 -40 -41
-42 -44 -22 -51 29 -9 59 2 66 26 4 11 15 19 29 19 12 0 25 3 28 6 8 8 -9 66
-22 74 -15 9 17 35 60 48 53 17 91 22 85 11 -4 -5 -16 -9 -29 -9 -26 0 -86
-19 -99 -30 -5 -4 -4 -17 1 -27 6 -11 13 -32 15 -48 3 -23 9 -29 28 -29 46 1
179 35 180 47 1 7 2 17 4 22 1 6 3 16 3 23 1 8 12 12 25 11 26 -4 50 9 42 22
-4 5 -1 9 4 9 16 0 13 -16 -4 -30 -8 -7 -15 -18 -15 -25 0 -19 38 -6 45 15 3
10 19 20 35 24 17 3 43 14 58 25 15 11 43 23 64 26 29 6 40 3 57 -14 27 -27
31 -27 31 7 0 16 -8 32 -19 39 -14 9 -18 20 -15 38 3 18 0 25 -11 25 -8 0 -15
4 -15 8 0 5 -11 14 -24 20 -22 10 -29 6 -70 -38 -25 -27 -46 -46 -46 -42 0 3
20 27 45 52 41 42 43 47 32 70 -9 17 -20 24 -35 22 -27 -4 -36 16 -23 49 7 21
5 28 -10 38 -11 6 -19 20 -17 29 4 24 -10 42 -27 35 -8 -3 -15 0 -15 6 0 6 -6
11 -13 11 -16 0 -49 34 -45 46 1 5 -1 24 -5 42 -6 29 -10 33 -29 27 -16 -4
-19 -3 -9 3 16 12 4 37 -33 70 -20 17 -31 20 -45 13 -23 -13 -56 -4 -99 26
-37 24 -57 29 -67 14z m-81 -66 c-10 -8 -26 -15 -36 -15 -9 0 -19 -6 -21 -12
-3 -8 -6 -6 -6 5 -1 12 7 17 23 17 14 0 28 5 31 10 3 6 11 10 18 10 6 0 2 -7
-9 -15z m182 6 c-3 -4 -23 -11 -45 -15 -22 -3 -48 -9 -58 -13 -10 -3 -15 -3
-11 1 3 4 28 14 55 21 60 16 65 17 59 6z m-131 -11 c3 -6 -1 -7 -9 -4 -18 7
-21 14 -7 14 6 0 13 -4 16 -10z m226 -48 c31 -18 38 -49 13 -59 -8 -3 -23 1
-31 10 -13 13 -14 19 -3 31 17 22 -7 22 -40 0 -20 -12 -19 -10 4 9 17 15 24
27 17 31 -20 13 -112 -7 -144 -30 -18 -13 -40 -27 -50 -30 -13 -5 -17 -16 -15
-48 3 -36 0 -41 -19 -44 -17 -3 -24 3 -29 22 -3 14 -10 23 -15 20 -11 -6 5
-38 35 -74 l21 -25 -22 19 -22 18 -4 -44 c-3 -41 -4 -40 -5 12 -2 60 -8 73
-34 83 -10 3 -18 16 -18 27 0 17 -3 19 -19 10 -21 -10 -69 -14 -59 -4 7 7 47
14 103 18 22 2 40 5 40 6 0 1 15 3 34 5 19 2 39 9 45 17 21 28 62 46 119 53
31 4 58 12 58 19 1 6 4 0 6 -12 3 -13 18 -31 34 -40z m-81 -46 c0 -2 -8 -10
-17 -17 -16 -13 -17 -12 -4 4 13 16 21 21 21 13z m68 -40 c-2 -13 -10 -21 -23
-21 -23 0 -33 34 -14 45 20 13 40 -1 37 -24z m-108 -16 c-6 -11 -13 -20 -16
-20 -2 0 0 9 6 20 6 11 13 20 16 20 2 0 0 -9 -6 -20z m202 -73 c14 -22 -4 -37
-41 -33 -20 3 -39 5 -43 5 -10 1 -10 35 -1 44 9 10 76 -3 85 -16z m-235 -3 c4
-10 -1 -22 -10 -29 -10 -7 -17 -18 -17 -24 0 -19 -44 -9 -48 11 -8 40 61 78
75 42z m341 -51 c39 -24 18 -26 -23 -2 -38 23 -38 23 -54 3 -25 -31 -95 -53
-107 -33 -2 4 9 6 24 4 21 -3 39 4 63 25 36 30 53 31 97 3z m-228 -18 c-14
-17 -30 -20 -30 -4 0 5 4 8 9 4 5 -3 12 -1 16 5 3 5 9 10 12 10 3 0 0 -7 -7
-15z m-80 -35 c0 -25 -34 -50 -124 -90 -49 -22 -76 -40 -76 -50 0 -9 -16 -31
-35 -50 -19 -19 -35 -29 -35 -24 0 6 14 20 30 32 17 13 30 32 30 43 0 15 21
30 90 63 80 38 88 44 74 58 -14 14 -14 17 1 31 19 20 45 12 45 -13z m285 -20
c-21 -22 -40 -47 -41 -55 -1 -9 -7 -22 -14 -29 -13 -17 -50 -28 -50 -15 0 5 9
9 19 9 12 0 22 9 26 23 7 20 82 107 94 107 3 0 -12 -18 -34 -40z m-247 -9 c20
-12 10 -46 -14 -49 -25 -4 -40 24 -23 44 13 16 19 17 37 5z m3 -118 c13 -21
28 -42 33 -46 7 -5 5 -7 -4 -5 -8 3 -25 23 -38 46 -29 52 -22 55 9 5z m117 -3
c-7 -11 -17 -20 -22 -20 -5 0 -1 9 9 20 10 11 20 20 22 20 2 0 -2 -9 -9 -20z
m-17 -30 c21 -12 26 -46 7 -53 -21 -7 -58 15 -58 34 0 14 9 23 28 28 2 1 12
-4 23 -9z m175 -39 c-6 -9 -46 -22 -46 -15 0 3 10 9 23 14 29 11 29 11 23 1z"/>
<path d="M1230 2772 c0 -3 6 -13 14 -21 8 -9 21 -34 30 -56 14 -37 14 -38 -1
-17 -21 29 -35 28 -27 -3 5 -21 3 -25 -15 -25 -24 0 -48 -35 -28 -44 13 -5
-35 2 -66 11 -18 5 -18 4 -1 -24 15 -22 15 -25 3 -16 -13 11 -18 9 -27 -11 -9
-20 -8 -23 6 -19 10 2 28 -7 41 -21 14 -14 29 -26 35 -26 5 0 20 -10 33 -22
18 -17 26 -19 35 -10 9 9 9 15 1 23 -6 6 -9 26 -6 44 4 26 1 36 -18 48 -12 9
-19 20 -15 24 4 4 14 0 21 -11 10 -13 19 -16 32 -10 10 4 29 8 43 8 19 1 26 8
30 31 4 17 11 29 18 28 7 -2 12 4 12 13 0 8 -5 12 -11 9 -13 -9 -49 23 -49 44
-1 14 -90 67 -90 53z m80 -155 c0 -5 -4 -5 -10 -2 -5 3 -10 14 -10 23 0 15 2
15 10 2 5 -8 10 -19 10 -23z"/>
<path d="M1360 2613 c0 -33 -2 -35 -29 -31 -36 5 -32 -5 9 -22 23 -10 33 -10
44 -1 11 10 20 10 37 1 17 -10 23 -9 30 1 15 24 -6 70 -33 75 -7 2 -23 5 -35
8 -21 4 -23 1 -23 -31z"/>
<path d="M2377 2589 c-9 -6 -17 -8 -17 -6 0 3 -19 -13 -42 -34 -40 -36 -41
-39 -25 -57 9 -10 17 -31 17 -45 0 -17 5 -27 15 -27 9 0 23 -16 32 -35 9 -19
21 -35 25 -35 19 0 68 -45 68 -62 0 -10 8 -27 17 -38 10 -11 18 -26 19 -33 0
-6 2 -17 2 -23 1 -6 16 -17 33 -24 35 -15 74 -89 63 -122 -3 -10 0 -26 8 -35
7 -9 12 -19 11 -22 -6 -13 33 -91 44 -91 7 0 15 -17 18 -37 4 -21 10 -48 16
-61 5 -13 9 -31 9 -41 0 -10 6 -31 14 -45 20 -39 13 -125 -13 -152 -12 -12
-21 -29 -21 -37 0 -29 -12 -47 -32 -47 -17 0 -19 -4 -13 -27 13 -50 11 -58
-17 -61 -22 -3 -28 -9 -28 -27 0 -26 -60 -91 -97 -106 -47 -18 -22 -42 60 -59
36 -7 61 -18 67 -30 5 -10 27 -27 47 -37 22 -12 39 -28 41 -41 4 -27 21 -32
68 -22 22 5 45 5 55 -1 12 -6 19 -5 21 2 6 17 68 1 68 -17 0 -18 46 -37 70
-29 10 3 21 1 25 -5 4 -7 11 -5 21 4 21 21 18 26 -16 26 -32 0 -53 26 -31 40
23 13 39 56 29 74 -16 29 -2 48 31 41 16 -3 45 -2 64 3 19 5 53 6 75 2 37 -6
42 -5 62 21 24 34 40 37 40 10 0 -11 6 -21 13 -24 19 -6 47 4 47 18 0 7 6 18
14 24 12 10 20 9 39 -4 24 -15 57 -12 57 6 0 5 9 9 20 9 13 0 22 9 26 28 3 15
17 50 30 79 13 28 24 56 24 62 0 6 10 16 22 22 12 7 29 21 38 32 18 22 62 -20
-460 442 -69 60 -189 167 -268 238 l-144 127 -142 2 -141 2 133 6 132 5 -147
130 c-181 160 -175 156 -196 144z m1063 -929 c0 -5 -19 -10 -42 -10 -56 -1
-313 -9 -452 -15 -114 -5 -131 -12 -120 -49 4 -12 2 -16 -5 -11 -7 4 -11 16
-9 28 3 19 -3 23 -47 27 -58 7 66 15 425 28 124 5 231 9 238 10 6 1 12 -2 12
-8z m-611 -213 c-2 -111 -7 -99 -11 30 -2 44 0 79 4 76 5 -2 7 -50 7 -106z
m-1 -187 c-3 -18 -13 -20 -182 -25 -99 -3 -178 -3 -175 -1 9 9 100 15 222 15
l127 1 1 33 c1 17 3 24 6 15 2 -10 3 -27 1 -38z"/>
<path d="M1308 2523 c-7 -9 -7 -17 1 -27 6 -7 8 -21 5 -30 -4 -11 3 -27 18
-44 14 -15 31 -43 37 -63 14 -43 28 -48 113 -44 68 4 43 -1 -64 -14 -54 -6
-65 -5 -57 5 8 10 0 19 -30 39 -23 14 -42 33 -43 43 0 9 -2 22 -3 27 -2 6 -3
17 -4 25 -1 8 -4 10 -10 5 -11 -13 -22 -115 -12 -115 11 0 31 -69 24 -85 -3
-9 5 -17 21 -21 35 -8 57 1 49 21 -3 9 16 -4 41 -30 44 -43 49 -45 65 -31 24
22 67 14 103 -20 25 -23 28 -25 19 -7 -6 12 -9 41 -7 64 5 47 -11 96 -37 118
-10 7 -17 22 -17 32 0 21 -44 66 -78 80 -22 8 -22 10 -7 38 8 17 15 34 15 40
0 14 -130 9 -142 -6z m72 -73 c10 0 23 -6 30 -14 6 -8 24 -17 38 -19 25 -4 25
-4 -4 -6 -20 0 -34 5 -38 14 -3 8 -13 15 -22 15 -20 0 -54 28 -53 44 0 6 7 1
16 -11 8 -13 23 -23 33 -23z"/>
<path d="M1313 2193 c-8 -3 -2 -18 19 -44 27 -33 37 -39 70 -39 32 0 41 -5 58
-32 18 -30 19 -44 3 -100 -2 -10 -12 -18 -22 -18 -16 0 -17 -6 -9 -57 8 -50
15 -64 53 -100 24 -23 46 -51 50 -63 3 -11 10 -20 16 -20 5 0 15 -16 23 -35 8
-19 22 -38 29 -41 8 -3 17 -18 20 -34 4 -16 15 -31 26 -35 11 -3 30 -19 42
-36 11 -16 34 -36 50 -45 27 -14 30 -19 27 -57 -3 -40 -1 -42 32 -53 33 -11
35 -14 36 -60 1 -27 5 -57 9 -67 4 -10 5 -40 3 -68 -5 -43 -2 -51 16 -61 12
-6 24 -16 28 -21 3 -6 37 -9 77 -8 39 1 80 -3 92 -10 12 -6 55 -12 96 -13 60
-2 73 0 68 12 -25 66 -11 97 40 88 42 -8 59 10 42 43 -7 13 -16 24 -22 23 -5
0 -19 5 -30 11 -11 6 -26 10 -33 8 -8 -1 -24 5 -37 13 -14 9 -30 16 -37 16 -7
1 -40 14 -73 30 -58 27 -61 28 -80 11 -25 -22 -55 -34 -55 -21 0 6 8 10 17 10
9 0 26 9 37 19 21 19 21 19 71 -5 28 -13 60 -26 72 -28 13 -3 33 -12 45 -20
12 -9 29 -16 37 -16 11 0 11 3 -2 18 -10 10 -17 23 -17 29 0 11 -91 103 -191
196 -38 35 -46 48 -44 75 l1 32 -145 1 c-138 0 -178 3 -186 11 -2 2 71 2 162
0 l165 -4 -11 21 c-7 12 -29 32 -49 46 -63 42 -76 55 -77 78 -1 12 -7 32 -14
45 -9 16 -9 22 0 20 19 -5 21 19 2 26 -27 9 -61 31 -89 55 -20 17 -23 25 -14
41 12 23 13 53 1 45 -12 -7 -41 22 -41 39 0 8 -7 19 -15 26 -9 8 -15 30 -15
56 0 33 -4 44 -16 44 -11 0 -14 -6 -9 -21 5 -14 2 -25 -6 -30 -20 -13 -24 -12
-53 17 -23 24 -86 42 -86 25 0 -9 46 -58 67 -71 14 -9 15 -12 5 -17 -10 -4 -7
-12 11 -32 25 -27 44 -67 27 -56 -6 3 -10 11 -10 17 0 5 -11 19 -25 30 -14 11
-25 26 -25 35 0 11 -7 14 -27 9 -26 -5 -27 -5 -6 6 l22 11 -20 28 c-11 16 -28
29 -38 29 -10 0 -31 10 -46 22 -26 20 -67 30 -92 21z m365 -314 c11 -19 10
-19 -8 4 -12 15 -28 27 -36 27 -8 0 -14 5 -14 11 0 17 41 -13 58 -42z m64 -44
c9 4 26 -4 40 -17 13 -13 16 -17 6 -9 -10 8 -32 14 -50 15 -18 1 -33 7 -36 16
-4 12 -3 13 10 2 9 -7 22 -10 30 -7z m179 -542 c13 -16 12 -17 -3 -4 -11 8
-28 11 -44 7 -17 -5 -23 -3 -19 4 10 16 51 12 66 -7z m319 -88 c0 -8 -2 -15
-4 -15 -2 0 -6 7 -10 15 -3 8 -1 15 4 15 6 0 10 -7 10 -15z m-162 -63 c4 -30
-26 -42 -44 -17 -10 14 -11 22 -2 32 16 20 42 12 46 -15z"/>
<path d="M2380 2180 c-8 -5 -25 -10 -38 -10 -12 0 -25 -6 -28 -14 -3 -8 -17
-17 -31 -21 -13 -3 -37 -17 -51 -30 -15 -14 -43 -28 -62 -31 -19 -4 -42 -12
-50 -19 -22 -19 -116 -38 -189 -39 -53 0 -68 -4 -87 -23 -13 -13 -29 -23 -36
-23 -6 0 2 -15 19 -32 35 -38 54 -108 28 -108 -16 0 -20 -15 -6 -24 5 -3 7
-14 4 -25 -3 -13 6 -27 30 -45 18 -14 37 -26 40 -26 12 0 54 -46 60 -65 6 -19
14 -20 106 -17 l100 3 4 37 4 37 1 -39 2 -39 238 5 c130 3 219 2 197 -1 -22
-4 -173 -8 -335 -10 -162 -1 -299 -6 -303 -10 -14 -14 -3 -56 13 -53 8 2 12 0
8 -4 -10 -9 30 -64 47 -64 7 0 31 -19 52 -41 21 -23 55 -57 76 -77 20 -19 37
-41 37 -49 0 -22 38 -53 65 -53 14 0 25 -4 25 -9 0 -12 48 -25 80 -22 13 2 37
14 53 27 16 13 33 24 38 24 5 0 9 7 9 15 0 8 5 15 11 15 19 0 42 31 43 58 1
21 7 28 27 30 22 3 26 7 21 25 -2 12 -10 28 -15 35 -8 11 -6 17 8 25 11 7 27
12 35 12 9 0 15 11 17 30 1 16 10 35 19 42 26 19 24 94 -3 182 -12 41 -20 77
-18 82 3 4 -6 21 -20 37 -14 16 -25 34 -25 38 0 5 -7 23 -16 39 -17 31 -27 69
-26 95 3 67 -48 123 -88 98 -17 -11 -23 -9 -45 15 -30 31 -26 30 -45 17z m-92
-134 c-2 -13 -10 -21 -23 -21 -23 0 -33 34 -14 45 20 13 40 -1 37 -24z m247
-36 c-11 -5 -50 -9 -87 -9 -54 -1 -68 -4 -68 -16 0 -12 -12 -15 -57 -13 l-58
2 51 3 c41 3 53 8 57 23 5 18 14 20 94 19 58 0 81 -3 68 -9z m-282 -67 c-18
-2 -38 -12 -45 -22 -7 -9 -20 -21 -28 -26 -8 -4 -2 6 14 23 22 24 38 32 60 30
l31 -1 -32 -4z m137 -48 c16 -19 6 -45 -19 -45 -23 0 -35 28 -20 46 15 18 24
18 39 -1z m-233 -12 c-10 -10 -97 -21 -97 -12 0 4 19 10 43 12 23 2 46 4 51 5
5 1 6 -1 3 -5z m63 -18 c0 -8 -2 -15 -4 -15 -2 0 -6 7 -10 15 -3 8 -1 15 4 15
6 0 10 -7 10 -15z m-184 -113 c-16 -15 -25 -20 -20 -12 14 25 38 50 43 44 3
-2 -8 -17 -23 -32z m161 -4 c-3 -8 -6 -5 -6 6 -1 11 2 17 5 13 3 -3 4 -12 1
-19z m233 -3 c0 -32 -45 -49 -56 -20 -10 24 14 47 37 34 10 -5 19 -11 19 -14z
m-430 -18 c0 -2 -10 -12 -22 -23 l-23 -19 19 23 c18 21 26 27 26 19z m565
-157 c0 -16 -6 -26 -18 -28 -19 -4 -32 20 -23 44 9 25 41 13 41 -16z"/>
<path d="M1736 1964 c-7 -18 10 -44 29 -44 6 0 20 -9 29 -19 24 -27 56 -34 56
-12 0 18 -38 57 -77 79 -29 15 -30 15 -37 -4z"/>
<path d="M3612 1461 c-31 -32 -70 -104 -88 -166 -5 -16 -19 -35 -32 -41 -12
-6 -31 -19 -41 -28 -18 -17 -22 -17 -52 -2 -40 20 -37 20 -41 -6 -3 -23 -60
-47 -66 -28 -2 6 -10 10 -18 10 -8 0 -14 6 -15 13 0 6 -4 2 -9 -9 -6 -16 -19
-23 -52 -26 -24 -2 -44 -1 -46 2 -1 4 -23 4 -47 -1 -25 -5 -51 -6 -59 -3 -10
4 -12 -2 -9 -20 3 -15 -3 -36 -15 -53 l-20 -28 22 -1 c11 -1 30 -4 41 -7 11
-3 25 -6 32 -6 7 -1 24 -17 39 -36 l27 -36 -20 -19 c-12 -10 -24 -16 -27 -13
-3 4 -6 1 -6 -6 0 -10 16 -12 63 -7 34 3 143 8 242 12 99 4 183 11 186 16 3 5
59 11 125 15 65 3 117 3 114 1 -3 -3 -54 -8 -115 -12 -60 -4 -112 -11 -115
-16 -5 -9 -295 -25 -448 -25 -61 0 -73 -3 -78 -18 -7 -22 18 -43 59 -51 15 -3
27 -12 27 -19 0 -8 9 -22 20 -32 24 -21 26 -70 5 -83 -19 -10 -9 -46 11 -38
20 8 115 15 279 21 313 13 348 15 361 26 27 22 37 82 25 139 -10 45 -9 56 4
70 8 9 15 24 15 32 0 8 15 26 34 39 18 12 39 32 46 43 11 18 8 24 -29 55 -22
20 -48 54 -58 76 -10 22 -30 56 -45 75 -14 19 -28 46 -30 61 -2 17 -29 48 -83
95 l-80 69 -33 -34z m263 -471 c-3 -5 -10 -10 -16 -10 -5 0 -9 5 -9 10 0 6 7
10 16 10 8 0 12 -4 9 -10z"/>
<path d="M2342 1203 c16 -20 -26 -53 -68 -53 -36 0 -36 0 -29 -32 4 -18 8 -43
9 -56 0 -13 9 -28 19 -34 10 -5 22 -21 27 -34 6 -15 26 -32 52 -43 43 -18 43
-18 68 3 l25 21 -19 -22 c-21 -26 -23 -25 63 -27 51 -1 57 -4 79 -36 13 -20
22 -44 19 -57 -5 -25 25 -41 46 -25 25 19 55 20 60 2 3 -10 24 -31 48 -46 52
-32 134 -99 166 -134 48 -53 69 -114 72 -210 1 -8 11 -20 24 -25 12 -6 23 -20
25 -32 2 -13 10 -23 17 -23 18 0 239 31 242 34 7 7 -27 81 -48 104 -55 60 -81
128 -54 138 19 8 12 36 -19 77 l-21 29 24 19 c21 17 22 23 12 42 -21 39 -35
52 -78 72 -23 11 -44 27 -46 35 -6 27 13 67 39 80 14 8 22 20 19 28 -3 7 -5
18 -5 23 0 16 -49 4 -63 -15 -11 -15 -20 -16 -77 -7 -36 6 -66 15 -68 21 -7
19 -35 42 -41 33 -3 -5 -41 -10 -83 -11 -69 -2 -78 0 -92 20 -8 12 -13 25 -11
29 3 4 -12 15 -33 24 -20 10 -47 26 -59 37 -12 11 -36 22 -53 24 -17 2 -45 11
-63 20 -38 20 -141 26 -125 7z m132 -19 c20 -8 20 -28 0 -44 -12 -11 -18 -10
-31 3 -9 8 -13 23 -10 31 7 17 16 19 41 10z m50 -49 c19 -19 10 -45 -15 -45
-25 0 -35 26 -19 45 15 18 15 18 34 0z m-25 -100 c0 -5 -6 1 -14 15 -8 14 -14
30 -14 35 0 6 6 -1 14 -15 8 -14 14 -29 14 -35z m331 -45 c0 -5 -2 -10 -4 -10
-3 0 -8 5 -11 10 -3 6 -1 10 4 10 6 0 11 -4 11 -10z m-347 -17 c-7 -2 -19 -2
-25 0 -7 3 -2 5 12 5 14 0 19 -2 13 -5z m567 -50 c3 -3 -36 -3 -86 -1 l-91 4
-22 -34 -22 -33 45 -42 c40 -38 43 -44 30 -61 -13 -19 -10 -41 6 -31 4 3 21
-2 36 -10 18 -9 62 -16 119 -17 l90 -2 -75 -4 c-41 -2 -99 2 -128 9 -40 9 -55
10 -64 1 -25 -25 -27 -10 -4 32 l23 44 -28 21 c-16 12 -36 33 -45 46 -16 24
-15 27 10 60 l26 34 88 -6 c48 -3 89 -8 92 -10z m-250 -8 c-10 -12 -10 -18 1
-32 13 -16 12 -17 -4 -4 -11 8 -28 11 -48 7 -18 -3 -28 -2 -24 4 3 6 17 10 30
10 12 0 25 7 29 15 3 8 11 15 17 15 8 0 8 -4 -1 -15z m217 -41 c3 -8 -2 -23
-11 -32 -15 -15 -17 -15 -32 0 -21 21 -11 48 16 48 11 0 23 -7 27 -16z"/>
<path d="M2090 914 c0 -10 12 -14 42 -14 48 0 47 4 -4 18 -31 8 -38 8 -38 -4z"/>
<path d="M1986 901 c-9 -15 22 -33 44 -26 17 5 19 10 9 21 -13 16 -45 19 -53
5z"/>
<path d="M3635 710 c-66 -4 -153 -8 -192 -9 l-73 -1 -2 -152 -2 -153 -6 150
-5 150 -27 -1 c-16 0 -48 -1 -73 -2 l-45 -2 17 -41 c15 -39 15 -43 0 -54 -26
-19 -20 -42 21 -88 21 -23 44 -61 52 -84 8 -27 19 -43 29 -43 9 0 81 9 161 19
80 11 186 25 235 31 50 6 98 16 107 21 10 5 26 9 37 9 11 0 23 11 31 29 15 38
-1 71 -35 71 -30 0 -44 25 -38 66 3 18 0 35 -6 38 -6 4 -11 18 -11 32 0 20 -5
24 -27 22 -16 -1 -82 -5 -148 -8z"/>
<path d="M2562 663 c2 -10 14 -19 27 -21 27 -4 21 12 -10 29 -18 9 -20 8 -17
-8z"/>
<path d="M2549 473 c12 -23 29 -38 37 -31 2 3 -8 15 -22 29 -25 23 -26 23 -15
2z"/>
<path d="M1187 193 c656 -2 1730 -2 2385 0 656 1 120 2 -1192 2 -1312 0 -1848
-1 -1193 -2z"/>
</g>
</svg>
